<mxfile host="app.diagrams.net" modified="2023-08-25T00:07:43.576Z" agent="Mozilla/5.0 (X11; Ubuntu; Linux x86_64; rv:109.0) Gecko/20100101 Firefox/116.0" etag="SIEpa9IhBJ3LAzRcN5mU" version="21.6.8" type="github">
  <diagram name="PÃ¡gina-1" id="HObaGmJfU6cW_uGDjIfL">
    <mxGraphModel dx="1434" dy="822" grid="1" gridSize="10" guides="1" tooltips="1" connect="1" arrows="1" fold="1" page="1" pageScale="1" pageWidth="827" pageHeight="1169" math="0" shadow="0">
      <root>
        <mxCell id="0" />
        <mxCell id="1" parent="0" />
        <mxCell id="i-EBkG4W8lG_7rL8BpoN-25" value="" style="rounded=1;whiteSpace=wrap;html=1;strokeColor=#FF8000;fillColor=none;strokeWidth=3;" vertex="1" parent="1">
          <mxGeometry x="35" y="740" width="570" height="360" as="geometry" />
        </mxCell>
        <mxCell id="i-EBkG4W8lG_7rL8BpoN-22" value="" style="rounded=1;whiteSpace=wrap;html=1;dashed=1;dashPattern=8 8;strokeColor=#2E73B8;fillColor=none;strokeWidth=3;" vertex="1" parent="1">
          <mxGeometry x="80" y="800" width="460" height="220" as="geometry" />
        </mxCell>
        <mxCell id="i-EBkG4W8lG_7rL8BpoN-1" value="" style="rounded=1;whiteSpace=wrap;html=1;fillColor=none;strokeWidth=2;dashed=1;strokeColor=#007FFF;" vertex="1" parent="1">
          <mxGeometry x="89" y="380" width="80" height="180" as="geometry" />
        </mxCell>
        <mxCell id="i-EBkG4W8lG_7rL8BpoN-2" value="&lt;b&gt;&lt;font color=&quot;#007fff&quot; face=&quot;Rubik&quot;&gt;Zabbix Server&lt;br&gt;&lt;/font&gt;&lt;/b&gt;" style="text;html=1;strokeColor=none;fillColor=none;align=center;verticalAlign=middle;whiteSpace=wrap;rounded=0;" vertex="1" parent="1">
          <mxGeometry x="99" y="410" width="60" height="30" as="geometry" />
        </mxCell>
        <mxCell id="i-EBkG4W8lG_7rL8BpoN-4" value="" style="rounded=1;whiteSpace=wrap;html=1;fillColor=none;strokeWidth=3;strokeColor=#4D4D4D;" vertex="1" parent="1">
          <mxGeometry x="28" y="310" width="422" height="310" as="geometry" />
        </mxCell>
        <mxCell id="i-EBkG4W8lG_7rL8BpoN-5" value="" style="shape=image;verticalLabelPosition=bottom;labelBackgroundColor=default;verticalAlign=top;aspect=fixed;imageAspect=0;image=https://cdn.icon-icons.com/icons2/2699/PNG/512/zabbix_logo_icon_167937.png;" vertex="1" parent="1">
          <mxGeometry x="59" y="350" width="53" height="53" as="geometry" />
        </mxCell>
        <mxCell id="i-EBkG4W8lG_7rL8BpoN-6" value="" style="rounded=1;whiteSpace=wrap;html=1;fillColor=none;strokeWidth=2;dashed=1;strokeColor=#007FFF;" vertex="1" parent="1">
          <mxGeometry x="219" y="380" width="80" height="180" as="geometry" />
        </mxCell>
        <mxCell id="i-EBkG4W8lG_7rL8BpoN-7" value="&lt;b&gt;&lt;font color=&quot;#007fff&quot; face=&quot;Rubik&quot;&gt;Zabbix Front End&lt;br&gt;&lt;/font&gt;&lt;/b&gt;" style="text;html=1;strokeColor=none;fillColor=none;align=center;verticalAlign=middle;whiteSpace=wrap;rounded=0;" vertex="1" parent="1">
          <mxGeometry x="229" y="410" width="60" height="30" as="geometry" />
        </mxCell>
        <mxCell id="i-EBkG4W8lG_7rL8BpoN-8" value="" style="shape=image;verticalLabelPosition=bottom;labelBackgroundColor=default;verticalAlign=top;aspect=fixed;imageAspect=0;image=https://cdn.icon-icons.com/icons2/2699/PNG/512/zabbix_logo_icon_167937.png;" vertex="1" parent="1">
          <mxGeometry x="189" y="350" width="53" height="53" as="geometry" />
        </mxCell>
        <mxCell id="i-EBkG4W8lG_7rL8BpoN-12" value="" style="rounded=1;whiteSpace=wrap;html=1;fillColor=none;strokeWidth=2;strokeColor=#FF8000;" vertex="1" parent="1">
          <mxGeometry x="142.5" y="880" width="80" height="90" as="geometry" />
        </mxCell>
        <mxCell id="i-EBkG4W8lG_7rL8BpoN-13" value="&lt;b&gt;&lt;font color=&quot;#ff8000&quot; face=&quot;Rubik&quot;&gt;Zabbix Data Base&lt;br&gt;&lt;/font&gt;&lt;/b&gt;" style="text;html=1;strokeColor=none;fillColor=none;align=center;verticalAlign=middle;whiteSpace=wrap;rounded=0;" vertex="1" parent="1">
          <mxGeometry x="142.5" y="910" width="81" height="30" as="geometry" />
        </mxCell>
        <mxCell id="i-EBkG4W8lG_7rL8BpoN-16" value="" style="outlineConnect=0;dashed=0;verticalLabelPosition=bottom;verticalAlign=top;align=center;html=1;shape=mxgraph.aws3.rds;fillColor=#2E73B8;gradientColor=none;" vertex="1" parent="1">
          <mxGeometry x="104.5" y="829" width="58" height="71" as="geometry" />
        </mxCell>
        <mxCell id="i-EBkG4W8lG_7rL8BpoN-17" value="&lt;font size=&quot;1&quot; color=&quot;#ffffff&quot; face=&quot;Rubik&quot;&gt;&lt;b style=&quot;font-size: 18px;&quot;&gt;RDS&lt;/b&gt;&lt;/font&gt;" style="text;html=1;strokeColor=none;fillColor=none;align=center;verticalAlign=middle;whiteSpace=wrap;rounded=0;" vertex="1" parent="1">
          <mxGeometry x="103.5" y="849.5" width="60" height="30" as="geometry" />
        </mxCell>
        <mxCell id="i-EBkG4W8lG_7rL8BpoN-18" value="" style="rounded=1;whiteSpace=wrap;html=1;fillColor=none;strokeWidth=2;strokeColor=#FF8000;" vertex="1" parent="1">
          <mxGeometry x="394.5" y="880" width="80" height="90" as="geometry" />
        </mxCell>
        <mxCell id="i-EBkG4W8lG_7rL8BpoN-19" value="&lt;b&gt;&lt;font color=&quot;#ff8000&quot; face=&quot;Rubik&quot;&gt;Zabbix Data Base&lt;br&gt;&lt;/font&gt;&lt;/b&gt;" style="text;html=1;strokeColor=none;fillColor=none;align=center;verticalAlign=middle;whiteSpace=wrap;rounded=0;" vertex="1" parent="1">
          <mxGeometry x="394.5" y="910" width="81" height="30" as="geometry" />
        </mxCell>
        <mxCell id="i-EBkG4W8lG_7rL8BpoN-20" value="" style="outlineConnect=0;dashed=0;verticalLabelPosition=bottom;verticalAlign=top;align=center;html=1;shape=mxgraph.aws3.rds;fillColor=#2E73B8;gradientColor=none;" vertex="1" parent="1">
          <mxGeometry x="436.5" y="829" width="58" height="71" as="geometry" />
        </mxCell>
        <mxCell id="i-EBkG4W8lG_7rL8BpoN-21" value="&lt;font size=&quot;1&quot; color=&quot;#ffffff&quot; face=&quot;Rubik&quot;&gt;&lt;b style=&quot;font-size: 18px;&quot;&gt;RDS&lt;/b&gt;&lt;/font&gt;" style="text;html=1;strokeColor=none;fillColor=none;align=center;verticalAlign=middle;whiteSpace=wrap;rounded=0;" vertex="1" parent="1">
          <mxGeometry x="435.5" y="849.5" width="60" height="30" as="geometry" />
        </mxCell>
        <mxCell id="i-EBkG4W8lG_7rL8BpoN-23" value="&lt;font color=&quot;#2e73b8&quot; style=&quot;font-size: 20px;&quot; face=&quot;Rubik&quot;&gt;&lt;b&gt;DATA BASE HA&lt;br&gt;&lt;/b&gt;&lt;/font&gt;" style="text;html=1;strokeColor=none;fillColor=none;align=center;verticalAlign=middle;whiteSpace=wrap;rounded=0;" vertex="1" parent="1">
          <mxGeometry x="349" y="1040" width="170" height="30" as="geometry" />
        </mxCell>
        <mxCell id="i-EBkG4W8lG_7rL8BpoN-27" value="" style="shape=image;verticalLabelPosition=bottom;labelBackgroundColor=default;verticalAlign=top;aspect=fixed;imageAspect=0;image=https://cdn.icon-icons.com/icons2/2407/PNG/512/aws_icon_146074.png;" vertex="1" parent="1">
          <mxGeometry x="20" y="699.5" width="110.5" height="110.5" as="geometry" />
        </mxCell>
        <mxCell id="i-EBkG4W8lG_7rL8BpoN-30" value="&lt;font style=&quot;font-size: 20px;&quot; color=&quot;#ff8000&quot; face=&quot;Rubik&quot;&gt;&lt;b&gt;AWS Network&lt;br&gt;&lt;/b&gt;&lt;/font&gt;" style="text;html=1;strokeColor=none;fillColor=none;align=center;verticalAlign=middle;whiteSpace=wrap;rounded=0;" vertex="1" parent="1">
          <mxGeometry x="129" y="710" width="170" height="30" as="geometry" />
        </mxCell>
        <mxCell id="i-EBkG4W8lG_7rL8BpoN-31" value="&lt;font color=&quot;#4d4d4d&quot; style=&quot;font-size: 20px;&quot; face=&quot;Rubik&quot;&gt;&lt;b&gt;LOCAL NETWORK&lt;br&gt;&lt;/b&gt;&lt;/font&gt;" style="text;html=1;strokeColor=none;fillColor=none;align=center;verticalAlign=middle;whiteSpace=wrap;rounded=0;" vertex="1" parent="1">
          <mxGeometry x="103.5" y="270" width="170" height="30" as="geometry" />
        </mxCell>
        <mxCell id="i-EBkG4W8lG_7rL8BpoN-33" value="" style="rounded=1;whiteSpace=wrap;html=1;dashed=1;strokeColor=#7F00FF;fillColor=none;strokeWidth=3;" vertex="1" parent="1">
          <mxGeometry x="89" y="820" width="421" height="180" as="geometry" />
        </mxCell>
      </root>
    </mxGraphModel>
  </diagram>
</mxfile>
